<svg width="1267" height="381" viewBox="0 0 1267 381" fill="none" xmlns="http://www.w3.org/2000/svg">
    <rect width="1267" height="381" rx="47" fill="#FFB4B4"/>
    <circle cx="191.5" cy="190.5" r="141.5" fill="#FF7070"/>
    <circle cx="191" cy="191" r="126" stroke="white" stroke-width="10"/>
    <path d="M206.258 148.333C206.258 162.565 204.983 172.801 202.432 179.041C199.888 185.275 194.487 192.081 186.229 199.46C179.026 205.785 173.537 211.278 169.763 215.937C165.982 220.589 164.092 225.902 164.092 231.876C164.092 239.08 166.506 245.053 171.334 249.797C176.169 254.541 182.891 256.913 191.5 256.913C200.46 256.913 207.27 254.189 211.93 248.743C216.582 243.296 219.875 237.762 221.807 232.14L248.952 243.735C245.263 254.98 238.498 264.731 228.659 272.989C218.82 281.246 206.434 285.375 191.5 285.375C173.052 285.375 158.863 280.234 148.933 269.953C139.01 259.678 134.048 247.337 134.048 232.93C134.048 224.145 135.935 216.633 139.709 210.392C143.49 204.158 149.421 197.089 157.503 189.182C166.112 180.925 171.337 174.645 173.179 170.344C175.027 166.036 175.951 158.699 175.951 148.333H206.258ZM191.5 85.0833C197.298 85.0833 202.26 87.146 206.385 91.2713C210.517 95.4036 212.583 100.369 212.583 106.167C212.583 111.965 210.517 116.93 206.385 121.062C202.26 125.187 197.298 127.25 191.5 127.25C185.702 127.25 180.737 125.187 176.605 121.062C172.479 116.93 170.417 111.965 170.417 106.167C170.417 100.369 172.479 95.4036 176.605 91.2713C180.737 87.146 185.702 85.0833 191.5 85.0833Z" fill="white"/>
    <path d="M367 304H362V309H367V304ZM367 101.5V96.5H362V101.5H367ZM398.5 101.5L403.101 99.5418L401.806 96.5H398.5V101.5ZM440 199L435.399 200.958L445 199H440ZM440 101.5V96.5H435V101.5H440ZM477 101.5H482V96.5H477V101.5ZM477 304V309H482V304H477ZM446.75 304L442.1 305.838L443.35 309H446.75V304ZM405.25 199L409.9 197.162L400.25 199H405.25ZM405.25 304V309H410.25V304H405.25ZM372 304V101.5H362V304H372ZM367 106.5H398.5V96.5H367V106.5ZM393.899 103.458L435.399 200.958L444.601 197.042L403.101 99.5418L393.899 103.458ZM445 199V101.5H435V199H445ZM440 106.5H477V96.5H440V106.5ZM472 101.5V304H482V101.5H472ZM477 299H446.75V309H477V299ZM451.4 302.162L409.9 197.162L400.6 200.838L442.1 305.838L451.4 302.162ZM400.25 199V304H410.25V199H400.25ZM405.25 299H367V309H405.25V299ZM508.887 172.5L504.02 173.645L504.94 177.558L508.959 177.499L508.887 172.5ZM505.887 159.75L505.759 154.752L499.611 154.909L501.02 160.895L505.887 159.75ZM518.387 153.25L513.81 151.236L513.81 151.236L518.387 153.25ZM521.137 137.25H526.137V132.25H521.137V137.25ZM503.887 137.25H498.887V142.25H503.887V137.25ZM503.887 101.5V96.5H498.887V101.5H503.887ZM539.637 101.5H544.637V96.5H539.637V101.5ZM539.387 116L534.39 115.822L534.387 115.911V116H539.387ZM539.137 129.25L534.141 129.05L534.14 129.063L534.14 129.076L539.137 129.25ZM532.137 161.5L527.814 158.987L527.792 159.025L527.771 159.063L532.137 161.5ZM513.754 171.355L510.754 158.605L501.02 160.895L504.02 173.645L513.754 171.355ZM506.015 164.748C513.496 164.557 520.028 161.936 522.963 155.264L513.81 151.236C513.079 152.898 511.278 154.61 505.759 154.752L506.015 164.748ZM522.963 155.264C525.169 150.252 526.137 144.169 526.137 137.25H516.137C516.137 143.331 515.272 147.915 513.81 151.236L522.963 155.264ZM521.137 132.25H503.887V142.25H521.137V132.25ZM508.887 137.25V101.5H498.887V137.25H508.887ZM503.887 106.5H539.637V96.5H503.887V106.5ZM534.637 101.5C534.637 106.445 534.554 111.218 534.39 115.822L544.384 116.178C544.552 111.448 544.637 106.555 544.637 101.5H534.637ZM534.387 116C534.387 120.608 534.304 124.957 534.141 129.05L544.133 129.45C544.302 125.209 544.387 120.726 544.387 116H534.387ZM534.14 129.076C533.65 143.107 531.366 152.877 527.814 158.987L536.459 164.013C541.24 155.79 543.623 144.059 544.134 129.424L534.14 129.076ZM527.771 159.063C524.972 164.078 519.329 167.348 508.814 167.501L508.959 177.499C521.444 177.319 531.302 173.255 536.503 163.937L527.771 159.063ZM546.771 304L541.858 303.072L540.739 309H546.771V304ZM585.021 101.5V96.5H580.878L580.108 100.572L585.021 101.5ZM636.021 101.5L640.937 100.584L640.176 96.5H636.021V101.5ZM673.771 304V309H679.79L678.687 303.084L673.771 304ZM632.521 304L627.583 304.78L628.249 309H632.521V304ZM625.771 261.25L630.71 260.47L630.044 256.25H625.771V261.25ZM596.021 261.25V256.25H591.774L591.087 260.442L596.021 261.25ZM589.021 304V309H593.269L593.956 304.808L589.021 304ZM600.021 234.5L595.067 233.826L594.295 239.5H600.021V234.5ZM621.521 234.5V239.5H627.248L626.476 233.826L621.521 234.5ZM610.771 155.5L615.726 154.826L605.817 154.826L610.771 155.5ZM551.685 304.928L589.935 102.428L580.108 100.572L541.858 303.072L551.685 304.928ZM585.021 106.5H636.021V96.5H585.021V106.5ZM631.106 102.416L668.856 304.916L678.687 303.084L640.937 100.584L631.106 102.416ZM673.771 299H632.521V309H673.771V299ZM637.46 303.22L630.71 260.47L620.833 262.03L627.583 304.78L637.46 303.22ZM625.771 256.25H596.021V266.25H625.771V256.25ZM591.087 260.442L584.087 303.192L593.956 304.808L600.956 262.058L591.087 260.442ZM589.021 299H546.771V309H589.021V299ZM600.021 239.5H621.521V229.5H600.021V239.5ZM626.476 233.826L615.726 154.826L605.817 156.174L616.567 235.174L626.476 233.826ZM605.817 154.826L595.067 233.826L604.976 235.174L615.726 156.174L605.817 154.826ZM690.467 304H685.467V309H690.467V304ZM690.467 101.5V96.5H685.467V101.5H690.467ZM788.467 108.5L785.908 112.795L785.942 112.816L785.976 112.836L788.467 108.5ZM805.967 128.5L801.38 130.49L801.387 130.507L801.394 130.523L805.967 128.5ZM803.967 196.25L808.192 198.923L808.204 198.904L808.216 198.885L803.967 196.25ZM782.967 213.25L784.654 217.957L784.654 217.957L782.967 213.25ZM735.217 218V213H730.217V218H735.217ZM735.217 304V309H740.217V304H735.217ZM735.217 186.75H730.217V191.75H735.217V186.75ZM762.717 183.75L759.833 179.665L759.833 179.665L762.717 183.75ZM768.217 174.75L763.366 173.537L763.342 173.633L763.322 173.73L768.217 174.75ZM768.467 146L763.535 146.822L763.555 146.943L763.581 147.062L768.467 146ZM763.217 136.5L760.038 140.36L760.038 140.36L763.217 136.5ZM735.217 133V128H730.217V133H735.217ZM695.467 304V101.5H685.467V304H695.467ZM690.467 106.5H758.467V96.5H690.467V106.5ZM758.467 106.5C770.025 106.5 779.066 108.719 785.908 112.795L791.026 104.204C782.201 98.9473 771.242 96.5 758.467 96.5V106.5ZM785.976 112.836C792.813 116.763 797.945 122.575 801.38 130.49L810.554 126.51C806.322 116.759 799.787 109.237 790.957 104.164L785.976 112.836ZM801.394 130.523C804.871 138.384 806.717 148.235 806.717 160.25H816.717C816.717 147.265 814.729 135.95 810.539 126.477L801.394 130.523ZM806.717 160.25C806.717 175.491 804.182 186.414 799.717 193.615L808.216 198.885C814.085 189.419 816.717 176.342 816.717 160.25H806.717ZM799.741 193.577C795.151 200.832 789.031 205.765 781.279 208.543L784.654 217.957C794.57 214.402 802.449 208.001 808.192 198.923L799.741 193.577ZM781.279 208.543C773.072 211.486 763.739 213 753.217 213V223C764.695 223 775.195 221.348 784.654 217.957L781.279 208.543ZM753.217 213H735.217V223H753.217V213ZM730.217 218V304H740.217V218H730.217ZM735.217 299H690.467V309H735.217V299ZM735.217 191.75H750.217V181.75H735.217V191.75ZM750.217 191.75C756.191 191.75 761.56 190.687 765.6 187.835L759.833 179.665C758.207 180.813 755.243 181.75 750.217 181.75V191.75ZM765.6 187.835C769.649 184.977 772.069 180.774 773.112 175.77L763.322 173.73C762.698 176.726 761.451 178.523 759.833 179.665L765.6 187.835ZM773.068 175.963C774.203 171.423 774.717 165.895 774.717 159.5H764.717C764.717 165.438 764.231 170.077 763.366 173.537L773.068 175.963ZM774.717 159.5C774.717 154.082 774.281 149.21 773.353 144.938L763.581 147.062C764.319 150.457 764.717 154.585 764.717 159.5H774.717ZM773.399 145.178C772.556 140.121 770.261 135.824 766.395 132.64L760.038 140.36C761.84 141.843 763.044 143.879 763.535 146.822L773.399 145.178ZM766.395 132.64C762.253 129.229 756.443 128 749.967 128V138C755.49 138 758.514 139.105 760.038 140.36L766.395 132.64ZM749.967 128H735.217V138H749.967V128ZM730.217 133V186.75H740.217V133H730.217ZM849.586 300.25L847.246 304.669L847.246 304.669L849.586 300.25ZM830.336 279.5L825.787 281.575L825.794 281.59L825.801 281.606L830.336 279.5ZM823.086 242.75L822.343 237.806L817.94 238.467L818.089 242.917L823.086 242.75ZM861.336 237L866.335 236.904L866.225 231.209L860.593 232.056L861.336 237ZM863.586 258L858.735 259.213L858.753 259.283L858.773 259.354L863.586 258ZM869.586 269.5L866.174 273.155L866.233 273.21L866.293 273.263L869.586 269.5ZM888.086 268.25L883.567 266.11L883.52 266.209L883.478 266.31L888.086 268.25ZM884.336 237.25L880.212 240.078L880.232 240.106L880.251 240.133L884.336 237.25ZM868.086 219.75L864.801 223.52L864.82 223.536L864.84 223.553L868.086 219.75ZM850.586 204.5L853.871 200.73L853.845 200.708L853.819 200.686L850.586 204.5ZM831.086 182.5L826.836 185.135L826.867 185.185L826.9 185.234L831.086 182.5ZM838.586 112.5L841.9 116.244L841.917 116.229L841.934 116.213L838.586 112.5ZM906.086 104.25L903.629 108.605L903.653 108.618L903.676 108.631L906.086 104.25ZM921.086 118.75L916.715 121.178L916.756 121.251L916.798 121.322L921.086 118.75ZM928.086 137.5L923.161 138.362L923.173 138.434L923.188 138.505L928.086 137.5ZM930.336 156.25L930.948 161.212L935.46 160.656L935.334 156.111L930.336 156.25ZM891.836 161L886.838 161.139L886.991 166.636L892.448 165.962L891.836 161ZM890.586 145.5L885.617 146.052L885.628 146.157L885.644 146.26L890.586 145.5ZM887.086 135.25L883.054 138.207L883.103 138.274L883.154 138.339L887.086 135.25ZM869.336 136.75L864.995 134.269L864.949 134.349L864.907 134.43L869.336 136.75ZM871.836 165.75L867.786 168.683L867.844 168.762L867.904 168.839L871.836 165.75ZM886.086 180.5L882.771 184.243L882.776 184.248L882.782 184.252L886.086 180.5ZM902.836 195.25L899.532 199.002L899.565 199.032L899.6 199.061L902.836 195.25ZM925.086 220.75L920.858 223.42L920.875 223.446L920.892 223.472L925.086 220.75ZM927.836 282L932.189 284.46L932.2 284.44L932.211 284.42L927.836 282ZM909.336 300.25L906.885 295.892L906.865 295.903L906.845 295.914L909.336 300.25ZM881.336 302C869.236 302 859.513 299.848 851.925 295.831L847.246 304.669C856.659 309.652 868.103 312 881.336 312V302ZM851.925 295.831C844.46 291.879 838.779 285.811 834.871 277.394L825.801 281.606C830.56 291.855 837.712 299.621 847.246 304.669L851.925 295.831ZM834.885 277.425C830.918 268.727 828.57 257.189 828.083 242.583L818.089 242.917C818.602 258.311 821.088 271.273 825.787 281.575L834.885 277.425ZM823.829 247.694L862.079 241.944L860.593 232.056L822.343 237.806L823.829 247.694ZM856.337 237.096C856.507 245.95 857.274 253.367 858.735 259.213L868.437 256.787C867.231 251.966 866.498 245.383 866.335 236.904L856.337 237.096ZM858.773 259.354C860.382 265.076 862.71 269.922 866.174 273.155L872.998 265.845C871.461 264.411 869.79 261.591 868.399 256.646L858.773 259.354ZM866.293 273.263C869.906 276.424 874.254 278 879.086 278V268C876.584 268 874.6 267.243 872.878 265.737L866.293 273.263ZM879.086 278C881.943 278 884.731 277.521 887.17 276.234C889.706 274.896 891.585 272.824 892.694 270.19L883.478 266.31C883.253 266.843 882.966 267.146 882.502 267.391C881.94 267.687 880.896 268 879.086 268V278ZM892.605 270.39C894.421 266.556 895.336 262.491 895.336 258.25H885.336C885.336 261.009 884.751 263.611 883.567 266.11L892.605 270.39ZM895.336 258.25C895.336 249.096 893.128 241.035 888.421 234.367L880.251 240.133C883.544 244.798 885.336 250.737 885.336 258.25H895.336ZM888.46 234.422C884.155 228.145 878.414 221.993 871.332 215.947L864.84 223.553C871.424 229.174 876.517 234.689 880.212 240.078L888.46 234.422ZM871.371 215.98L853.871 200.73L847.301 208.27L864.801 223.52L871.371 215.98ZM853.819 200.686C846.509 194.489 840.334 187.516 835.272 179.766L826.9 185.234C832.505 193.817 839.329 201.511 847.353 208.314L853.819 200.686ZM835.335 179.865C830.765 172.494 828.336 163.209 828.336 151.75H818.336C818.336 164.624 821.073 175.84 826.836 185.135L835.335 179.865ZM828.336 151.75C828.336 135.609 833.076 124.055 841.9 116.244L835.272 108.756C823.762 118.945 818.336 133.558 818.336 151.75H828.336ZM841.934 116.213C850.949 108.086 863.467 103.75 880.086 103.75V93.75C861.705 93.75 846.557 98.5811 835.238 108.787L841.934 116.213ZM880.086 103.75C890.422 103.75 898.142 105.51 903.629 108.605L908.543 99.8951C901.029 95.657 891.416 93.75 880.086 93.75V103.75ZM903.676 108.631C909.611 111.895 913.887 116.088 916.715 121.178L925.457 116.322C921.618 109.412 915.894 103.938 908.496 99.8689L903.676 108.631ZM916.798 121.322C919.984 126.632 922.1 132.303 923.161 138.362L933.011 136.638C931.738 129.364 929.187 122.534 925.373 116.178L916.798 121.322ZM923.188 138.505C924.469 144.749 925.18 150.708 925.338 156.389L935.334 156.111C935.158 149.792 934.37 143.251 932.984 136.495L923.188 138.505ZM929.724 151.288L891.224 156.038L892.448 165.962L930.948 161.212L929.724 151.288ZM896.834 160.861C896.664 154.723 896.235 149.338 895.528 144.74L885.644 146.26C886.27 150.329 886.675 155.277 886.838 161.139L896.834 160.861ZM895.555 144.948C895.003 139.973 893.654 135.516 891.018 132.161L883.154 138.339C884.185 139.651 885.169 142.027 885.617 146.052L895.555 144.948ZM891.118 132.293C888.119 128.203 883.591 126.5 878.586 126.5V136.5C881.248 136.5 882.386 137.297 883.054 138.207L891.118 132.293ZM878.586 126.5C872.7 126.5 867.921 129.148 864.995 134.269L873.677 139.231C874.751 137.352 876.139 136.5 878.586 136.5V126.5ZM864.907 134.43C862.747 138.552 861.586 142.843 861.586 147.25H871.586C871.586 144.657 872.258 141.948 873.765 139.07L864.907 134.43ZM861.586 147.25C861.586 155.53 863.526 162.799 867.786 168.683L875.886 162.817C873.146 159.034 871.586 153.97 871.586 147.25H861.586ZM867.904 168.839C871.804 173.802 876.778 178.935 882.771 184.243L889.401 176.757C883.727 171.732 879.202 167.032 875.768 162.661L867.904 168.839ZM882.782 184.252L899.532 199.002L906.14 191.498L889.39 176.748L882.782 184.252ZM899.6 199.061C908.059 206.244 915.138 214.362 920.858 223.42L929.313 218.08C923.034 208.138 915.28 199.256 906.072 191.439L899.6 199.061ZM920.892 223.472C926.421 231.989 929.336 242.738 929.336 256H939.336C939.336 241.262 936.085 228.511 929.28 218.028L920.892 223.472ZM929.336 256C929.336 264.707 927.359 272.533 923.461 279.58L932.211 284.42C936.979 275.801 939.336 266.293 939.336 256H929.336ZM923.483 279.54C919.618 286.378 914.125 291.82 906.885 295.892L911.787 304.608C920.547 299.68 927.387 292.956 932.189 284.46L923.483 279.54ZM906.845 295.914C899.908 299.9 891.469 302 881.336 302V312C892.869 312 903.097 309.6 911.827 304.586L906.845 295.914ZM940.551 304L935.638 303.072L934.518 309H940.551V304ZM978.801 101.5V96.5H974.657L973.888 100.572L978.801 101.5ZM1029.8 101.5L1034.72 100.584L1033.95 96.5H1029.8V101.5ZM1067.55 304V309H1073.57L1072.47 303.084L1067.55 304ZM1026.3 304L1021.36 304.78L1022.03 309H1026.3V304ZM1019.55 261.25L1024.49 260.47L1023.82 256.25H1019.55V261.25ZM989.801 261.25V256.25H985.553L984.866 260.442L989.801 261.25ZM982.801 304V309H987.049L987.735 304.808L982.801 304ZM993.801 234.5L988.846 233.826L988.074 239.5H993.801V234.5ZM1015.3 234.5V239.5H1021.03L1020.26 233.826L1015.3 234.5ZM1004.55 155.5L1009.51 154.826L999.596 154.826L1004.55 155.5ZM945.464 304.928L983.714 102.428L973.888 100.572L935.638 303.072L945.464 304.928ZM978.801 106.5H1029.8V96.5H978.801V106.5ZM1024.89 102.416L1062.64 304.916L1072.47 303.084L1034.72 100.584L1024.89 102.416ZM1067.55 299H1026.3V309H1067.55V299ZM1031.24 303.22L1024.49 260.47L1014.61 262.03L1021.36 304.78L1031.24 303.22ZM1019.55 256.25H989.801V266.25H1019.55V256.25ZM984.866 260.442L977.866 303.192L987.735 304.808L994.735 262.058L984.866 260.442ZM982.801 299H940.551V309H982.801V299ZM993.801 239.5H1015.3V229.5H993.801V239.5ZM1020.26 233.826L1009.51 154.826L999.596 156.174L1010.35 235.174L1020.26 233.826ZM999.596 154.826L988.846 233.826L998.755 235.174L1009.51 156.174L999.596 154.826ZM1084.25 304H1079.25V309H1084.25V304ZM1084.25 101.5V96.5H1079.25V101.5H1084.25ZM1129 101.5H1134V96.5H1129V101.5ZM1129 184.25H1124L1133.62 186.15L1129 184.25ZM1163 101.5V96.5H1159.64L1158.37 99.5997L1163 101.5ZM1206.75 101.5L1211.37 103.396L1214.2 96.5H1206.75V101.5ZM1169.25 193L1164.62 191.104L1163.9 192.869L1164.53 194.667L1169.25 193ZM1208.5 304V309H1215.57L1213.21 302.333L1208.5 304ZM1163 304L1158.24 305.553L1159.37 309H1163V304ZM1133.75 214.5L1138.5 212.947L1135.07 202.469L1129.45 211.947L1133.75 214.5ZM1129 222.5L1124.7 219.947L1124 221.127V222.5H1129ZM1129 304V309H1134V304H1129ZM1089.25 304V101.5H1079.25V304H1089.25ZM1084.25 106.5H1129V96.5H1084.25V106.5ZM1124 101.5V184.25H1134V101.5H1124ZM1133.62 186.15L1167.62 103.4L1158.37 99.5997L1124.37 182.35L1133.62 186.15ZM1163 106.5H1206.75V96.5H1163V106.5ZM1202.12 99.6039L1164.62 191.104L1173.87 194.896L1211.37 103.396L1202.12 99.6039ZM1164.53 194.667L1203.78 305.667L1213.21 302.333L1173.96 191.333L1164.53 194.667ZM1208.5 299H1163V309H1208.5V299ZM1167.75 302.447L1138.5 212.947L1128.99 216.053L1158.24 305.553L1167.75 302.447ZM1129.45 211.947L1124.7 219.947L1133.3 225.053L1138.05 217.053L1129.45 211.947ZM1124 222.5V304H1134V222.5H1124ZM1129 299H1084.25V309H1129V299Z" fill="#FF3030"/>
    </svg>
    