<svg width="1159" height="283" viewBox="0 0 1159 283" fill="none" xmlns="http://www.w3.org/2000/svg">
    <circle cx="141.5" cy="141.5" r="141.5" fill="#FF7070"/>
    <circle cx="141" cy="142" r="126" stroke="white" stroke-width="10"/>
    <path d="M156.258 99.3333C156.258 113.565 154.983 123.801 152.432 130.041C149.888 136.275 144.487 143.081 136.229 150.46C129.026 156.785 123.537 162.278 119.763 166.937C115.982 171.589 114.092 176.902 114.092 182.876C114.092 190.08 116.506 196.053 121.334 200.797C126.169 205.541 132.891 207.913 141.5 207.913C150.46 207.913 157.27 205.189 161.93 199.743C166.582 194.296 169.875 188.762 171.807 183.14L198.952 194.735C195.263 205.98 188.498 215.731 178.659 223.989C168.82 232.246 156.434 236.375 141.5 236.375C123.052 236.375 108.863 231.234 98.9327 220.953C89.0095 210.678 84.0479 198.337 84.0479 183.93C84.0479 175.145 85.9349 167.633 89.7088 161.392C93.4897 155.158 99.4212 148.089 107.503 140.182C116.112 131.925 121.337 125.645 123.179 121.344C125.027 117.036 125.951 109.699 125.951 99.3333H156.258ZM141.5 36.0833C147.298 36.0833 152.26 38.146 156.385 42.2713C160.517 46.4036 162.583 51.3687 162.583 57.1667C162.583 62.9646 160.517 67.9297 156.385 72.062C152.26 76.1873 147.298 78.25 141.5 78.25C135.702 78.25 130.737 76.1873 126.605 72.062C122.479 67.9297 120.417 62.9646 120.417 57.1667C120.417 51.3687 122.479 46.4036 126.605 42.2713C130.737 38.146 135.702 36.0833 141.5 36.0833Z" fill="white"/>
    <path d="M317 255H312V260H317V255ZM317 52.5V47.5H312V52.5H317ZM348.5 52.5L353.101 50.5418L351.806 47.5H348.5V52.5ZM390 150L385.399 151.958L395 150H390ZM390 52.5V47.5H385V52.5H390ZM427 52.5H432V47.5H427V52.5ZM427 255V260H432V255H427ZM396.75 255L392.1 256.838L393.35 260H396.75V255ZM355.25 150L359.9 148.162L350.25 150H355.25ZM355.25 255V260H360.25V255H355.25ZM322 255V52.5H312V255H322ZM317 57.5H348.5V47.5H317V57.5ZM343.899 54.4582L385.399 151.958L394.601 148.042L353.101 50.5418L343.899 54.4582ZM395 150V52.5H385V150H395ZM390 57.5H427V47.5H390V57.5ZM422 52.5V255H432V52.5H422ZM427 250H396.75V260H427V250ZM401.4 253.162L359.9 148.162L350.6 151.838L392.1 256.838L401.4 253.162ZM350.25 150V255H360.25V150H350.25ZM355.25 250H317V260H355.25V250ZM458.887 123.5L454.02 124.645L454.94 128.558L458.959 128.499L458.887 123.5ZM455.887 110.75L455.759 105.752L449.611 105.909L451.02 111.895L455.887 110.75ZM468.387 104.25L463.81 102.236L463.81 102.236L468.387 104.25ZM471.137 88.25H476.137V83.25H471.137V88.25ZM453.887 88.25H448.887V93.25H453.887V88.25ZM453.887 52.5V47.5H448.887V52.5H453.887ZM489.637 52.5H494.637V47.5H489.637V52.5ZM489.387 67L484.39 66.8215L484.387 66.9107V67H489.387ZM489.137 80.25L484.141 80.0501L484.14 80.0629L484.14 80.0757L489.137 80.25ZM482.137 112.5L477.814 109.987L477.792 110.025L477.771 110.063L482.137 112.5ZM463.754 122.355L460.754 109.605L451.02 111.895L454.02 124.645L463.754 122.355ZM456.015 115.748C463.496 115.557 470.028 112.936 472.963 106.264L463.81 102.236C463.079 103.898 461.278 105.61 455.759 105.752L456.015 115.748ZM472.963 106.264C475.169 101.252 476.137 95.1688 476.137 88.25H466.137C466.137 94.3312 465.272 98.9148 463.81 102.236L472.963 106.264ZM471.137 83.25H453.887V93.25H471.137V83.25ZM458.887 88.25V52.5H448.887V88.25H458.887ZM453.887 57.5H489.637V47.5H453.887V57.5ZM484.637 52.5C484.637 57.4446 484.554 62.2183 484.39 66.8215L494.384 67.1784C494.552 62.4483 494.637 57.5554 494.637 52.5H484.637ZM484.387 67C484.387 71.6077 484.304 75.9573 484.141 80.0501L494.133 80.4498C494.302 76.2093 494.387 71.7256 494.387 67H484.387ZM484.14 80.0757C483.65 94.1072 481.366 103.877 477.814 109.987L486.459 115.013C491.24 106.79 493.623 95.0595 494.134 80.4243L484.14 80.0757ZM477.771 110.063C474.972 115.078 469.329 118.348 458.814 118.501L458.959 128.499C471.444 128.319 481.302 124.255 486.503 114.937L477.771 110.063ZM496.771 255L491.858 254.072L490.739 260H496.771V255ZM535.021 52.5V47.5H530.878L530.108 51.572L535.021 52.5ZM586.021 52.5L590.937 51.5837L590.176 47.5H586.021V52.5ZM623.771 255V260H629.79L628.687 254.084L623.771 255ZM582.521 255L577.583 255.78L578.249 260H582.521V255ZM575.771 212.25L580.71 211.47L580.044 207.25H575.771V212.25ZM546.021 212.25V207.25H541.774L541.087 211.442L546.021 212.25ZM539.021 255V260H543.269L543.956 255.808L539.021 255ZM550.021 185.5L545.067 184.826L544.295 190.5H550.021V185.5ZM571.521 185.5V190.5H577.248L576.476 184.826L571.521 185.5ZM560.771 106.5L565.726 105.826L555.817 105.826L560.771 106.5ZM501.685 255.928L539.935 53.428L530.108 51.572L491.858 254.072L501.685 255.928ZM535.021 57.5H586.021V47.5H535.021V57.5ZM581.106 53.4163L618.856 255.916L628.687 254.084L590.937 51.5837L581.106 53.4163ZM623.771 250H582.521V260H623.771V250ZM587.46 254.22L580.71 211.47L570.833 213.03L577.583 255.78L587.46 254.22ZM575.771 207.25H546.021V217.25H575.771V207.25ZM541.087 211.442L534.087 254.192L543.956 255.808L550.956 213.058L541.087 211.442ZM539.021 250H496.771V260H539.021V250ZM550.021 190.5H571.521V180.5H550.021V190.5ZM576.476 184.826L565.726 105.826L555.817 107.174L566.567 186.174L576.476 184.826ZM555.817 105.826L545.067 184.826L554.976 186.174L565.726 107.174L555.817 105.826ZM640.467 255H635.467V260H640.467V255ZM640.467 52.5V47.5H635.467V52.5H640.467ZM738.467 59.5L735.908 63.7955L735.942 63.8158L735.976 63.8355L738.467 59.5ZM755.967 79.5L751.38 81.4905L751.387 81.5065L751.394 81.5225L755.967 79.5ZM753.967 147.25L758.192 149.923L758.204 149.904L758.216 149.885L753.967 147.25ZM732.967 164.25L734.654 168.957L734.654 168.957L732.967 164.25ZM685.217 169V164H680.217V169H685.217ZM685.217 255V260H690.217V255H685.217ZM685.217 137.75H680.217V142.75H685.217V137.75ZM712.717 134.75L709.833 130.665L709.833 130.665L712.717 134.75ZM718.217 125.75L713.366 124.537L713.342 124.633L713.322 124.73L718.217 125.75ZM718.467 97L713.535 97.822L713.555 97.9426L713.581 98.0621L718.467 97ZM713.217 87.5L710.038 91.3596L710.038 91.3596L713.217 87.5ZM685.217 84V79H680.217V84H685.217ZM645.467 255V52.5H635.467V255H645.467ZM640.467 57.5H708.467V47.5H640.467V57.5ZM708.467 57.5C720.025 57.5 729.066 59.7194 735.908 63.7955L741.026 55.2045C732.201 49.9473 721.242 47.5 708.467 47.5V57.5ZM735.976 63.8355C742.813 67.7633 747.945 73.5748 751.38 81.4905L760.554 77.5095C756.322 67.7586 749.787 60.2367 740.957 55.1645L735.976 63.8355ZM751.394 81.5225C754.871 89.3835 756.717 99.235 756.717 111.25H766.717C766.717 98.265 764.729 86.9498 760.539 77.4775L751.394 81.5225ZM756.717 111.25C756.717 126.491 754.182 137.414 749.717 144.615L758.216 149.885C764.085 140.419 766.717 127.342 766.717 111.25H756.717ZM749.741 144.577C745.151 151.832 739.031 156.765 731.279 159.543L734.654 168.957C744.57 165.402 752.449 159.001 758.192 149.923L749.741 144.577ZM731.279 159.543C723.072 162.486 713.739 164 703.217 164V174C714.695 174 725.195 172.348 734.654 168.957L731.279 159.543ZM703.217 164H685.217V174H703.217V164ZM680.217 169V255H690.217V169H680.217ZM685.217 250H640.467V260H685.217V250ZM685.217 142.75H700.217V132.75H685.217V142.75ZM700.217 142.75C706.191 142.75 711.56 141.687 715.6 138.835L709.833 130.665C708.207 131.813 705.243 132.75 700.217 132.75V142.75ZM715.6 138.835C719.649 135.977 722.069 131.774 723.112 126.77L713.322 124.73C712.698 127.726 711.451 129.523 709.833 130.665L715.6 138.835ZM723.068 126.963C724.203 122.423 724.717 116.895 724.717 110.5H714.717C714.717 116.438 714.231 121.077 713.366 124.537L723.068 126.963ZM724.717 110.5C724.717 105.082 724.281 100.21 723.353 95.9378L713.581 98.0621C714.319 101.457 714.717 105.585 714.717 110.5H724.717ZM723.399 96.178C722.556 91.1211 720.261 86.8236 716.395 83.6403L710.038 91.3596C711.84 92.8431 713.044 94.8788 713.535 97.822L723.399 96.178ZM716.395 83.6403C712.253 80.2287 706.443 79 699.967 79V89C705.49 89 708.514 90.1046 710.038 91.3596L716.395 83.6403ZM699.967 79H685.217V89H699.967V79ZM680.217 84V137.75H690.217V84H680.217ZM799.586 251.25L797.246 255.669L797.246 255.669L799.586 251.25ZM780.336 230.5L775.787 232.575L775.794 232.59L775.801 232.606L780.336 230.5ZM773.086 193.75L772.343 188.806L767.94 189.467L768.089 193.917L773.086 193.75ZM811.336 188L816.335 187.904L816.225 182.209L810.593 183.056L811.336 188ZM813.586 209L808.735 210.213L808.753 210.283L808.773 210.354L813.586 209ZM819.586 220.5L816.174 224.155L816.233 224.21L816.293 224.263L819.586 220.5ZM838.086 219.25L833.567 217.11L833.52 217.209L833.478 217.31L838.086 219.25ZM834.336 188.25L830.212 191.078L830.232 191.106L830.251 191.133L834.336 188.25ZM818.086 170.75L814.801 174.52L814.82 174.536L814.84 174.553L818.086 170.75ZM800.586 155.5L803.871 151.73L803.845 151.708L803.819 151.686L800.586 155.5ZM781.086 133.5L776.836 136.135L776.867 136.185L776.9 136.234L781.086 133.5ZM788.586 63.5L791.9 67.2438L791.917 67.2287L791.934 67.2134L788.586 63.5ZM856.086 55.25L853.629 59.6049L853.653 59.6181L853.676 59.6311L856.086 55.25ZM871.086 69.75L866.715 72.1782L866.756 72.251L866.798 72.3225L871.086 69.75ZM878.086 88.5L873.161 89.3619L873.173 89.4335L873.188 89.5047L878.086 88.5ZM880.336 107.25L880.948 112.212L885.46 111.656L885.334 107.111L880.336 107.25ZM841.836 112L836.838 112.139L836.991 117.636L842.448 116.962L841.836 112ZM840.586 96.5L835.617 97.0522L835.628 97.1565L835.644 97.2603L840.586 96.5ZM837.086 86.25L833.054 89.2068L833.103 89.2738L833.154 89.3391L837.086 86.25ZM819.336 87.75L814.995 85.2693L814.949 85.3488L814.907 85.43L819.336 87.75ZM821.836 116.75L817.786 119.683L817.844 119.762L817.904 119.839L821.836 116.75ZM836.086 131.5L832.771 135.243L832.776 135.248L832.782 135.252L836.086 131.5ZM852.836 146.25L849.532 150.002L849.565 150.032L849.6 150.061L852.836 146.25ZM875.086 171.75L870.858 174.42L870.875 174.446L870.892 174.472L875.086 171.75ZM877.836 233L882.189 235.46L882.2 235.44L882.211 235.42L877.836 233ZM859.336 251.25L856.885 246.892L856.865 246.903L856.845 246.914L859.336 251.25ZM831.336 253C819.236 253 809.513 250.848 801.925 246.831L797.246 255.669C806.659 260.652 818.103 263 831.336 263V253ZM801.925 246.831C794.46 242.879 788.779 236.811 784.871 228.394L775.801 232.606C780.56 242.855 787.712 250.621 797.246 255.669L801.925 246.831ZM784.885 228.425C780.918 219.727 778.57 208.189 778.083 193.583L768.089 193.917C768.602 209.311 771.088 222.273 775.787 232.575L784.885 228.425ZM773.829 198.694L812.079 192.944L810.593 183.056L772.343 188.806L773.829 198.694ZM806.337 188.096C806.507 196.95 807.274 204.367 808.735 210.213L818.437 207.787C817.231 202.966 816.498 196.383 816.335 187.904L806.337 188.096ZM808.773 210.354C810.382 216.076 812.71 220.922 816.174 224.155L822.998 216.845C821.461 215.411 819.79 212.591 818.399 207.646L808.773 210.354ZM816.293 224.263C819.906 227.424 824.254 229 829.086 229V219C826.584 219 824.6 218.243 822.878 216.737L816.293 224.263ZM829.086 229C831.943 229 834.731 228.521 837.17 227.234C839.706 225.896 841.585 223.824 842.694 221.19L833.478 217.31C833.253 217.843 832.966 218.146 832.502 218.391C831.94 218.687 830.896 219 829.086 219V229ZM842.605 221.39C844.421 217.556 845.336 213.491 845.336 209.25H835.336C835.336 212.009 834.751 214.611 833.567 217.11L842.605 221.39ZM845.336 209.25C845.336 200.096 843.128 192.035 838.421 185.367L830.251 191.133C833.544 195.798 835.336 201.737 835.336 209.25H845.336ZM838.46 185.422C834.155 179.145 828.414 172.993 821.332 166.947L814.84 174.553C821.424 180.174 826.517 185.689 830.212 191.078L838.46 185.422ZM821.371 166.98L803.871 151.73L797.301 159.27L814.801 174.52L821.371 166.98ZM803.819 151.686C796.509 145.489 790.334 138.516 785.272 130.766L776.9 136.234C782.505 144.817 789.329 152.511 797.353 159.314L803.819 151.686ZM785.335 130.865C780.765 123.494 778.336 114.209 778.336 102.75H768.336C768.336 115.624 771.073 126.84 776.836 136.135L785.335 130.865ZM778.336 102.75C778.336 86.6089 783.076 75.0553 791.9 67.2438L785.272 59.7562C773.762 69.9447 768.336 84.5577 768.336 102.75H778.336ZM791.934 67.2134C800.949 59.0856 813.467 54.75 830.086 54.75V44.75C811.705 44.75 796.557 49.5811 785.238 59.7865L791.934 67.2134ZM830.086 54.75C840.422 54.75 848.142 56.5097 853.629 59.6049L858.543 50.8951C851.029 46.657 841.416 44.75 830.086 44.75V54.75ZM853.676 59.6311C859.611 62.8951 863.887 67.0883 866.715 72.1782L875.457 67.3218C871.618 60.4117 865.894 54.9382 858.496 50.8689L853.676 59.6311ZM866.798 72.3225C869.984 77.6323 872.1 83.3029 873.161 89.3619L883.011 87.6381C881.738 80.3638 879.187 73.5343 875.373 67.1775L866.798 72.3225ZM873.188 89.5047C874.469 95.749 875.18 101.708 875.338 107.389L885.334 107.111C885.158 100.792 884.37 94.251 882.984 87.4953L873.188 89.5047ZM879.724 102.288L841.224 107.038L842.448 116.962L880.948 112.212L879.724 102.288ZM846.834 111.861C846.664 105.723 846.235 100.338 845.528 95.7397L835.644 97.2603C836.27 101.329 836.675 106.277 836.838 112.139L846.834 111.861ZM845.555 95.9478C845.003 90.9725 843.654 86.516 841.018 83.1609L833.154 89.3391C834.185 90.6507 835.169 93.0275 835.617 97.0522L845.555 95.9478ZM841.118 83.2932C838.119 79.2034 833.591 77.5 828.586 77.5V87.5C831.248 87.5 832.386 88.2966 833.054 89.2068L841.118 83.2932ZM828.586 77.5C822.7 77.5 817.921 80.1477 814.995 85.2693L823.677 90.2307C824.751 88.3522 826.139 87.5 828.586 87.5V77.5ZM814.907 85.43C812.747 89.5525 811.586 93.8427 811.586 98.25H821.586C821.586 95.6573 822.258 92.9475 823.765 90.07L814.907 85.43ZM811.586 98.25C811.586 106.53 813.526 113.799 817.786 119.683L825.886 113.817C823.146 110.034 821.586 104.97 821.586 98.25H811.586ZM817.904 119.839C821.804 124.802 826.778 129.935 832.771 135.243L839.401 127.757C833.727 122.732 829.202 118.032 825.768 113.661L817.904 119.839ZM832.782 135.252L849.532 150.002L856.14 142.498L839.39 127.748L832.782 135.252ZM849.6 150.061C858.059 157.244 865.138 165.362 870.858 174.42L879.313 169.08C873.034 159.138 865.28 150.256 856.072 142.439L849.6 150.061ZM870.892 174.472C876.421 182.989 879.336 193.738 879.336 207H889.336C889.336 192.262 886.085 179.511 879.28 169.028L870.892 174.472ZM879.336 207C879.336 215.707 877.359 223.533 873.461 230.58L882.211 235.42C886.979 226.801 889.336 217.293 889.336 207H879.336ZM873.483 230.54C869.618 237.378 864.125 242.82 856.885 246.892L861.787 255.608C870.547 250.68 877.387 243.956 882.189 235.46L873.483 230.54ZM856.845 246.914C849.908 250.9 841.469 253 831.336 253V263C842.869 263 853.097 260.6 861.827 255.586L856.845 246.914ZM890.551 255L885.638 254.072L884.518 260H890.551V255ZM928.801 52.5V47.5H924.657L923.888 51.572L928.801 52.5ZM979.801 52.5L984.716 51.5837L983.955 47.5H979.801V52.5ZM1017.55 255V260H1023.57L1022.47 254.084L1017.55 255ZM976.301 255L971.362 255.78L972.028 260H976.301V255ZM969.551 212.25L974.49 211.47L973.823 207.25H969.551V212.25ZM939.801 212.25V207.25H935.553L934.866 211.442L939.801 212.25ZM932.801 255V260H937.049L937.735 255.808L932.801 255ZM943.801 185.5L938.846 184.826L938.074 190.5H943.801V185.5ZM965.301 185.5V190.5H971.027L970.255 184.826L965.301 185.5ZM954.551 106.5L959.505 105.826L949.596 105.826L954.551 106.5ZM895.464 255.928L933.714 53.428L923.888 51.572L885.638 254.072L895.464 255.928ZM928.801 57.5H979.801V47.5H928.801V57.5ZM974.885 53.4163L1012.64 255.916L1022.47 254.084L984.716 51.5837L974.885 53.4163ZM1017.55 250H976.301V260H1017.55V250ZM981.24 254.22L974.49 211.47L964.612 213.03L971.362 255.78L981.24 254.22ZM969.551 207.25H939.801V217.25H969.551V207.25ZM934.866 211.442L927.866 254.192L937.735 255.808L944.735 213.058L934.866 211.442ZM932.801 250H890.551V260H932.801V250ZM943.801 190.5H965.301V180.5H943.801V190.5ZM970.255 184.826L959.505 105.826L949.596 107.174L960.346 186.174L970.255 184.826ZM949.596 105.826L938.846 184.826L948.755 186.174L959.505 107.174L949.596 105.826ZM1034.25 255H1029.25V260H1034.25V255ZM1034.25 52.5V47.5H1029.25V52.5H1034.25ZM1079 52.5H1084V47.5H1079V52.5ZM1079 135.25H1074L1083.62 137.15L1079 135.25ZM1113 52.5V47.5H1109.64L1108.37 50.5997L1113 52.5ZM1156.75 52.5L1161.37 54.3961L1164.2 47.5H1156.75V52.5ZM1119.25 144L1114.62 142.104L1113.9 143.869L1114.53 145.667L1119.25 144ZM1158.5 255V260H1165.57L1163.21 253.333L1158.5 255ZM1113 255L1108.24 256.553L1109.37 260H1113V255ZM1083.75 165.5L1088.5 163.947L1085.07 153.469L1079.45 162.947L1083.75 165.5ZM1079 173.5L1074.7 170.947L1074 172.127V173.5H1079ZM1079 255V260H1084V255H1079ZM1039.25 255V52.5H1029.25V255H1039.25ZM1034.25 57.5H1079V47.5H1034.25V57.5ZM1074 52.5V135.25H1084V52.5H1074ZM1083.62 137.15L1117.62 54.4002L1108.37 50.5997L1074.37 133.35L1083.62 137.15ZM1113 57.5H1156.75V47.5H1113V57.5ZM1152.12 50.6039L1114.62 142.104L1123.87 145.896L1161.37 54.3961L1152.12 50.6039ZM1114.53 145.667L1153.78 256.667L1163.21 253.333L1123.96 142.333L1114.53 145.667ZM1158.5 250H1113V260H1158.5V250ZM1117.75 253.447L1088.5 163.947L1078.99 167.053L1108.24 256.553L1117.75 253.447ZM1079.45 162.947L1074.7 170.947L1083.3 176.053L1088.05 168.053L1079.45 162.947ZM1074 173.5V255H1084V173.5H1074ZM1079 250H1034.25V260H1079V250Z" fill="#FF7070"/>
    </svg>
    