<svg width="283" height="283" viewBox="0 0 283 283" fill="none" xmlns="http://www.w3.org/2000/svg">
    <circle cx="141.5" cy="141.5" r="141.5" fill="#FF7070" />
    <circle cx="141" cy="142" r="126" stroke="white" stroke-width="10" />
    <path
        d="M156.258 99.3333C156.258 113.565 154.983 123.801 152.432 130.041C149.888 136.275 144.487 143.081 136.229 150.46C129.026 156.785 123.537 162.278 119.763 166.937C115.982 171.589 114.092 176.902 114.092 182.876C114.092 190.08 116.506 196.053 121.334 200.797C126.169 205.541 132.891 207.913 141.5 207.913C150.46 207.913 157.27 205.189 161.93 199.743C166.582 194.296 169.875 188.762 171.807 183.14L198.952 194.735C195.263 205.98 188.498 215.731 178.659 223.989C168.82 232.246 156.434 236.375 141.5 236.375C123.052 236.375 108.863 231.234 98.9327 220.953C89.0095 210.678 84.0479 198.337 84.0479 183.93C84.0479 175.145 85.9349 167.633 89.7088 161.392C93.4897 155.158 99.4212 148.089 107.503 140.182C116.112 131.925 121.337 125.645 123.179 121.344C125.027 117.036 125.951 109.699 125.951 99.3333H156.258ZM141.5 36.0833C147.298 36.0833 152.26 38.146 156.385 42.2713C160.517 46.4036 162.583 51.3687 162.583 57.1667C162.583 62.9646 160.517 67.9297 156.385 72.062C152.26 76.1873 147.298 78.25 141.5 78.25C135.702 78.25 130.737 76.1873 126.605 72.062C122.479 67.9297 120.417 62.9646 120.417 57.1667C120.417 51.3687 122.479 46.4036 126.605 42.2713C130.737 38.146 135.702 36.0833 141.5 36.0833Z"
        fill="white" />
</svg>
    